# xmcd
#
# Track frame offsets:
#	150
#	14037
#	28002
#	48540
#	70977
#	86502
#	103050
#	117792
#	136740
#	152735
#	165330
#	185607
#	204777
#
# Disc length: 3035 seconds
#
# Revision: 8
# Processed by: cddbd v1.5.2PL0 Copyright (c) Steve Scherf et al.
# Submitted via: audiograbber 1.83.01
#
DISCID=a70bd90d
DTITLE=MICHAEL BUBLE - TQM - Call Me Irresponsible
DYEAR=2007
DGENRE=Pop
TTITLE0=The Best Is Yet To Come
TTITLE1=It Had Better Be Tonight (Meglio Stasera)
TTITLE2=Me And Mrs. Jones
TTITLE3=I'm Your Man
TTITLE4=Comin' Home Baby (Duet With Boyz II Men)
TTITLE5=Lost
TTITLE6=Call Me Irresponsible
TTITLE7=Wonderful Tonight (Duet With Ivan Lins)
TTITLE8=Everything
TTITLE9=I've Got The World On A String
TTITLE10=Always On My Mind
TTITLE11=That's Life
TTITLE12=Dream
EXTD=YEAR: 2007
EXTT0=
EXTT1=
EXTT2=
EXTT3=
EXTT4=
EXTT5=
EXTT6=
EXTT7=
EXTT8=
EXTT9=
EXTT10=
EXTT11=
EXTT12=
PLAYORDER=
